<svg width="92" height="16" viewBox="0 0 92 16" fill="none" xmlns="http://www.w3.org/2000/svg">
<path d="M10.8491 0.759983C11.5395 0.759983 12.0991 1.31963 12.0991 2.00998V13.75C12.0991 14.4403 11.5395 15 10.8491 15C10.1587 15 9.5991 14.4403 9.5991 13.75V10.6C9.5991 9.49542 8.70367 8.59998 7.5991 8.59998H5.0791C3.97453 8.59998 3.0791 9.49541 3.0791 10.6V13.75C3.0791 14.4403 2.51946 15 1.8291 15C1.13875 15 0.579102 14.4403 0.579102 13.75V2.00998C0.579102 1.31963 1.13875 0.759983 1.8291 0.759983C2.51946 0.759983 3.0791 1.31963 3.0791 2.00998V4.41998C3.0791 5.52455 3.97453 6.41998 5.0791 6.41998H7.5991C8.70367 6.41998 9.5991 5.52455 9.5991 4.41998V2.00998C9.5991 1.31963 10.1587 0.759983 10.8491 0.759983Z" fill="#81634F"/>
<path d="M20.1927 0.419983C22.206 0.419983 23.8394 1.11332 25.0927 2.49998C26.3594 3.87332 26.9927 5.66665 26.9927 7.87998C26.9927 10.0933 26.3594 11.8933 25.0927 13.28C23.826 14.6533 22.1794 15.34 20.1527 15.34C18.1127 15.34 16.4594 14.6533 15.1927 13.28C13.9394 11.9067 13.3127 10.1067 13.3127 7.87998C13.3127 5.71998 13.926 3.93998 15.1527 2.53998C16.3927 1.12665 18.0727 0.419983 20.1927 0.419983ZM20.1527 2.51998C18.846 2.51998 17.7994 3.00665 17.0127 3.97998C16.226 4.93998 15.8327 6.22665 15.8327 7.83998C15.8327 9.49332 16.2194 10.8067 16.9927 11.78C17.7794 12.7533 18.846 13.24 20.1927 13.24C21.486 13.24 22.5194 12.7533 23.2927 11.78C24.0794 10.7933 24.4727 9.48665 24.4727 7.85998C24.4727 6.23332 24.0794 4.93998 23.2927 3.97998C22.5194 3.00665 21.4727 2.51998 20.1527 2.51998Z" fill="#81634F"/>
<path d="M41.048 0.759983C42.1526 0.759983 43.048 1.65541 43.048 2.75998V13.81C43.048 14.4672 42.5152 15 41.858 15C41.2008 15 40.668 14.4672 40.668 13.81V13.3661C40.668 11.5354 38.1183 11.0897 37.4972 12.8118L37.0555 14.0364C36.847 14.6146 36.2983 15 35.6836 15C35.0733 15 34.5275 14.6199 34.3158 14.0474L33.838 12.7552C33.1929 11.0108 30.608 11.4734 30.608 13.3333V13.82C30.608 14.4717 30.0797 15 29.428 15C28.7763 15 28.248 14.4717 28.248 13.82V2.75998C28.248 1.65542 29.1434 0.759983 30.248 0.759983H30.3387C31.1839 0.759983 31.9378 1.29122 32.2221 2.0871L33.8108 6.53377C34.4468 8.31379 36.969 8.29968 37.585 6.51266L39.1033 2.10821C39.3814 1.30144 40.1407 0.759983 40.9941 0.759983H41.048Z" fill="#81634F"/>
<path d="M54.2114 0.759983C54.7913 0.759983 55.2614 1.23008 55.2614 1.80998C55.2614 2.38988 54.7913 2.85998 54.2114 2.85998H49.3714C48.3276 2.85998 47.4814 3.70616 47.4814 4.74998C47.4814 5.7938 48.3276 6.63998 49.3714 6.63998H53.6914C54.2493 6.63998 54.7014 7.09218 54.7014 7.64998C54.7014 8.20779 54.2493 8.65998 53.6914 8.65998H49.4814C48.3769 8.65998 47.4814 9.55541 47.4814 10.66V10.86C47.4814 11.9646 48.3769 12.86 49.4814 12.86H54.3114C54.9024 12.86 55.3814 13.339 55.3814 13.93C55.3814 14.5209 54.9024 15 54.3114 15H47.0014C45.8969 15 45.0014 14.1046 45.0014 13V2.75998C45.0014 1.65542 45.8969 0.759983 47.0014 0.759983H54.2114Z" fill="#81634F"/>
<path d="M72.0095 9.57998C72.7519 9.57998 73.3513 10.2179 73.1651 10.9365C72.8721 12.0672 72.3189 13.015 71.5055 13.78C70.3988 14.82 68.9588 15.34 67.1855 15.34C65.1722 15.34 63.5588 14.66 62.3455 13.3C61.1322 11.94 60.5255 10.1333 60.5255 7.87998C60.5255 6.51998 60.7855 5.28665 61.3055 4.17998C61.8255 3.05998 62.6055 2.15998 63.6455 1.47998C64.6855 0.786649 65.9055 0.439983 67.3055 0.439983C68.8122 0.439983 70.1255 0.859983 71.2455 1.69998C72.0047 2.26037 72.5587 2.99233 72.9074 3.89584C73.1833 4.6105 72.5795 5.29998 71.8135 5.29998C71.2154 5.29998 70.7266 4.86228 70.4512 4.33132C70.2399 3.92394 69.9513 3.58016 69.5855 3.29998C68.9588 2.80665 68.1855 2.55998 67.2655 2.55998C66.3188 2.55998 65.5122 2.82665 64.8455 3.35998C64.1922 3.89332 63.7255 4.55332 63.4455 5.33998C63.1788 6.11332 63.0455 6.95998 63.0455 7.87998C63.0455 8.57332 63.1255 9.22665 63.2855 9.83998C63.4455 10.4533 63.6855 11.02 64.0055 11.54C64.3255 12.0467 64.7588 12.4533 65.3055 12.76C65.8655 13.0666 66.5122 13.22 67.2455 13.22C69.0163 13.22 70.1545 12.3735 70.6601 10.6804C70.844 10.065 71.3672 9.57998 72.0095 9.57998Z" fill="#81634F"/>
<path d="M80.7591 0.419983C82.7724 0.419983 84.4058 1.11332 85.6591 2.49998C86.9258 3.87332 87.5591 5.66665 87.5591 7.87998C87.5591 10.0933 86.9258 11.8933 85.6591 13.28C84.3924 14.6533 82.7458 15.34 80.7191 15.34C78.6791 15.34 77.0258 14.6533 75.7591 13.28C74.5058 11.9067 73.8791 10.1067 73.8791 7.87998C73.8791 5.71998 74.4924 3.93998 75.7191 2.53998C76.9591 1.12665 78.6391 0.419983 80.7591 0.419983ZM80.7191 2.51998C79.4124 2.51998 78.3658 3.00665 77.5791 3.97998C76.7924 4.93998 76.3991 6.22665 76.3991 7.83998C76.3991 9.49332 76.7858 10.8067 77.5591 11.78C78.3458 12.7533 79.4124 13.24 80.7591 13.24C82.0524 13.24 83.0858 12.7533 83.8591 11.78C84.6458 10.7933 85.0391 9.48665 85.0391 7.85998C85.0391 6.23332 84.6458 4.93998 83.8591 3.97998C83.0858 3.00665 82.0391 2.51998 80.7191 2.51998Z" fill="#81634F"/>
<path d="M90.0944 12.3C90.84 12.3 91.4544 12.9044 91.4544 13.65C91.4544 14.3956 90.84 15 90.0944 15C89.3488 15 88.7344 14.3956 88.7344 13.65C88.7344 12.9044 89.3488 12.3 90.0944 12.3Z" fill="#81634F"/>
</svg>
