<svg width="22" height="22" viewBox="0 0 22 22" fill="none" xmlns="http://www.w3.org/2000/svg">
<path d="M21.6561 20.5515L15.756 14.6514C17.1737 12.9493 17.8807 10.7662 17.7298 8.55619C17.579 6.34615 16.5819 4.27936 14.946 2.78576C13.3101 1.29216 11.1613 0.48675 8.9467 0.537075C6.73209 0.5874 4.62214 1.48959 3.05577 3.05595C1.4894 4.62232 0.587217 6.73228 0.536892 8.94688C0.486567 11.1615 1.29198 13.3102 2.78558 14.9461C4.27918 16.5821 6.34597 17.5792 8.556 17.73C10.766 17.8809 12.9492 17.1739 14.6512 15.7562L20.5513 21.6563L21.6561 20.5515ZM2.12482 9.15625C2.12482 7.7656 2.53719 6.40618 3.3098 5.2499C4.0824 4.09362 5.18053 3.1924 6.46533 2.66022C7.75012 2.12805 9.16387 1.9888 10.5278 2.26011C11.8917 2.53141 13.1446 3.20107 14.1279 4.18441C15.1113 5.16775 15.7809 6.42059 16.0522 7.78452C16.3235 9.14845 16.1843 10.5622 15.6521 11.847C15.1199 13.1318 14.2187 14.2299 13.0624 15.0025C11.9061 15.7751 10.5467 16.1875 9.15607 16.1875C7.2919 16.1854 5.50467 15.444 4.18651 14.1258C2.86834 12.8076 2.12689 11.0204 2.12482 9.15625Z" fill="#121212"/>
</svg>
