<svg width="23" height="23" viewBox="0 0 23 23" fill="none" xmlns="http://www.w3.org/2000/svg">
<path d="M7.8125 22.4375C8.67544 22.4375 9.375 21.738 9.375 20.875C9.375 20.0121 8.67544 19.3125 7.8125 19.3125C6.94956 19.3125 6.25 20.0121 6.25 20.875C6.25 21.738 6.94956 22.4375 7.8125 22.4375Z" fill="#121212"/>
<path d="M18.75 22.4375C19.6129 22.4375 20.3125 21.738 20.3125 20.875C20.3125 20.0121 19.6129 19.3125 18.75 19.3125C17.8871 19.3125 17.1875 20.0121 17.1875 20.875C17.1875 21.738 17.8871 22.4375 18.75 22.4375Z" fill="#121212"/>
<path d="M21.875 4.46879H4.54688L3.90625 1.18754C3.86973 1.00842 3.77154 0.847773 3.6288 0.733574C3.48605 0.619375 3.30777 0.558851 3.125 0.562537H0V2.12504H2.48438L5.46875 17.125C5.50527 17.3042 5.60346 17.4648 5.7462 17.579C5.88895 17.6932 6.06723 17.7537 6.25 17.75H20.3125V16.1875H6.89062L6.25 13.0625H20.3125C20.4931 13.067 20.6696 13.0086 20.8121 12.8975C20.9545 12.7864 21.0541 12.6294 21.0938 12.4532L22.6562 5.42191C22.6824 5.30599 22.6818 5.18563 22.6545 5.06998C22.6271 4.95434 22.5737 4.84645 22.4984 4.75455C22.4231 4.66264 22.3278 4.58913 22.2197 4.53961C22.1117 4.49009 21.9938 4.46587 21.875 4.46879ZM19.6875 11.5H5.95312L4.85937 6.03129H20.8984L19.6875 11.5Z" fill="#121212"/>
</svg>
