<svg width="23" height="23" viewBox="0 0 23 23" fill="none" xmlns="http://www.w3.org/2000/svg">
<path d="M11.5 5.25C10.7274 5.25 9.97219 5.4791 9.32981 5.90832C8.68743 6.33755 8.18675 6.94762 7.8911 7.66139C7.59544 8.37517 7.51809 9.16058 7.66881 9.91832C7.81954 10.6761 8.19157 11.3721 8.73787 11.9184C9.28417 12.4647 9.9802 12.8367 10.7379 12.9874C11.4957 13.1382 12.2811 13.0608 12.9949 12.7652C13.7086 12.4695 14.3187 11.9688 14.7479 11.3264C15.1772 10.6841 15.4063 9.92883 15.4063 9.15625C15.4063 8.12025 14.9947 7.12668 14.2621 6.39411C13.5296 5.66155 12.536 5.25 11.5 5.25ZM11.5 11.5C11.0365 11.5 10.5833 11.3625 10.1979 11.105C9.81246 10.8475 9.51205 10.4814 9.33466 10.0532C9.15727 9.6249 9.11085 9.15365 9.20129 8.69901C9.29172 8.24436 9.51494 7.82675 9.84272 7.49897C10.1705 7.17119 10.5881 6.94797 11.0428 6.85753C11.4974 6.7671 11.9687 6.81351 12.3969 6.99091C12.8252 7.1683 13.1912 7.4687 13.4488 7.85413C13.7063 8.23956 13.8438 8.6927 13.8438 9.15625C13.8431 9.77764 13.5959 10.3734 13.1565 10.8128C12.7171 11.2521 12.1214 11.4993 11.5 11.5Z" fill="#121212"/>
<path d="M11.5 0.5625C9.33677 0.5625 7.22212 1.20397 5.42346 2.4058C3.62479 3.60763 2.22291 5.31583 1.39507 7.3144C0.567239 9.31297 0.35064 11.5121 0.772666 13.6338C1.19469 15.7555 2.23639 17.7043 3.76602 19.234C5.29566 20.7636 7.24454 21.8053 9.36621 22.2273C11.4879 22.6494 13.687 22.4328 15.6856 21.6049C17.6842 20.7771 19.3924 19.3752 20.5942 17.5765C21.796 15.7779 22.4375 13.6632 22.4375 11.5C22.4342 8.6002 21.2808 5.8201 19.2304 3.76963C17.1799 1.71916 14.3998 0.565767 11.5 0.5625ZM6.81251 19.6066V18.5312C6.81319 17.9099 7.06034 17.3141 7.49973 16.8747C7.93912 16.4353 8.53486 16.1882 9.15626 16.1875H13.8438C14.4651 16.1882 15.0609 16.4353 15.5003 16.8747C15.9397 17.3141 16.1868 17.9099 16.1875 18.5312V19.6066C14.765 20.4373 13.1473 20.875 11.5 20.875C9.85273 20.875 8.23503 20.4373 6.81251 19.6066ZM17.7441 18.4733C17.7286 17.4485 17.3111 16.4708 16.5815 15.751C15.8519 15.0311 14.8687 14.6267 13.8438 14.625H9.15626C8.13133 14.6267 7.14813 15.0311 6.41854 15.751C5.68895 16.4708 5.2714 17.4485 5.25586 18.4733C3.83912 17.2082 2.84003 15.5427 2.39089 13.6972C1.94175 11.8518 2.06375 9.91339 2.74074 8.1388C3.41772 6.3642 4.61775 4.83708 6.18194 3.75966C7.74612 2.68224 9.60066 2.10533 11.5 2.10533C13.3993 2.10533 15.2539 2.68224 16.8181 3.75966C18.3823 4.83708 19.5823 6.3642 20.2593 8.1388C20.9363 9.91339 21.0583 11.8518 20.6091 13.6972C20.16 15.5427 19.1609 17.2082 17.7441 18.4733Z" fill="#121212"/>
</svg>
